<svg xmlns="http://www.w3.org/2000/svg"  viewBox="0 0 48 48" width="48px" height="48px" baseProfile="basic"><path d="M42,21H24c-0.552,0-1,0.447-1,1v6c0,1.654,1.346,3,3,3h7v9c0,0.553,0.448,1,1,1h6c1.654,0,3-1.346,3-3V22	C43,21.447,42.552,21,42,21z"/><path d="M24,16c0.552,0,1-0.447,1-1V7c0-0.553-0.448-1-1-1C13.647,6,5.108,13.907,4.101,24H4v2c0,11.028,8.972,20,20,20	c0.552,0,1-0.447,1-1v-8c0-0.553-0.448-1-1-1c-5.514,0-10-4.486-10-10S18.486,16,24,16z"/><path fill="#fff" d="M34,20H24v6c0,1.105,0.895,2,2,2h8v10h6c1.105,0,2-0.895,2-2v-8v-8H34z"/><path fill="#fff" d="M24,13V5C13.507,5,5,13.507,5,24s8.507,19,19,19v-8c-6.075,0-11-4.925-11-11S17.925,13,24,13z"/><path d="M40,39h-6c-0.552,0-1-0.447-1-1v-9h-7c-1.654,0-3-1.346-3-3v-6c0-0.553,0.448-1,1-1h18c0.552,0,1,0.447,1,1v16	C43,37.654,41.654,39,40,39z M35,37h5c0.551,0,1-0.448,1-1V21H25v5c0,0.552,0.449,1,1,1h8c0.552,0,1,0.447,1,1V37z"/><path d="M24,44C12.972,44,4,35.028,4,24S12.972,4,24,4c0.552,0,1,0.447,1,1v8c0,0.553-0.448,1-1,1c-5.514,0-10,4.486-10,10	s4.486,10,10,10c0.552,0,1,0.447,1,1v8C25,43.553,24.552,44,24,44z M23,6.027C13.538,6.548,6,14.41,6,24s7.538,17.452,17,17.973	v-6.014C16.85,35.449,12,30.28,12,24s4.85-11.449,11-11.959V6.027z"/></svg>